<svg width="30" height="30" viewBox="0 0 30 30" fill="none" xmlns="http://www.w3.org/2000/svg">
<rect x="4" y="4" width="23" height="23" rx="6" fill="#24211C"/>
<path d="M9.02637 10.6104H22.0002" stroke="#F9F9F9" stroke-width="1.2" stroke-linecap="square" stroke-linejoin="round"/>
<path d="M9.02637 15.3936H22.0002" stroke="#F9F9F9" stroke-width="1.2" stroke-linecap="square" stroke-linejoin="round"/>
<path d="M9.02637 20.1807H22.0002" stroke="#F9F9F9" stroke-width="1.2" stroke-linecap="square" stroke-linejoin="round"/>
<path d="M18.3603 11.4012C18.7971 11.4012 19.1512 11.0471 19.1512 10.6103C19.1512 10.1735 18.7971 9.81934 18.3603 9.81934C17.9235 9.81934 17.5693 10.1735 17.5693 10.6103C17.5693 11.0471 17.9235 11.4012 18.3603 11.4012Z" fill="#F9F9F9" stroke="#F9F9F9" stroke-width="1.07604" stroke-linecap="square" stroke-linejoin="round"/>
<path d="M12.3476 16.2069C12.7844 16.2069 13.1385 15.8528 13.1385 15.4159C13.1385 14.9791 12.7844 14.625 12.3476 14.625C11.9108 14.625 11.5566 14.9791 11.5566 15.4159C11.5566 15.8528 11.9108 16.2069 12.3476 16.2069Z" fill="#F9F9F9" stroke="#F9F9F9" stroke-width="1.07604" stroke-linecap="square" stroke-linejoin="round"/>
</svg>
