<svg width="86" height="88" viewBox="0 0 86 88" fill="none" xmlns="http://www.w3.org/2000/svg">
<path d="M0.575736 4.57574C0.341421 4.81005 0.341421 5.18995 0.575736 5.42426L4.39411 9.24264C4.62843 9.47696 5.00833 9.47696 5.24264 9.24264C5.47696 9.00833 5.47696 8.62843 5.24264 8.39411L1.84853 5L5.24264 1.60589C5.47696 1.37157 5.47696 0.991674 5.24264 0.757359C5.00833 0.523045 4.62843 0.523045 4.39411 0.757359L0.575736 4.57574ZM2 5V4.4H1V5V5.6H2V5ZM85 88H85.6C85.6 41.829 48.171 4.4 2 4.4V5V5.6C47.5083 5.6 84.4 42.4917 84.4 88H85Z" fill="#F9F9F9"/>
</svg>
