<svg width="59" height="154" viewBox="0 0 59 154" fill="none" xmlns="http://www.w3.org/2000/svg">
<path d="M21.6847 72.0482L21.1182 71.8505L21.6847 72.0482ZM57.5904 0.892979C57.5313 0.566922 57.219 0.350516 56.893 0.409622L51.5796 1.37281C51.2535 1.43191 51.0371 1.74415 51.0962 2.07021C51.1553 2.39626 51.4676 2.61267 51.7936 2.55357L56.5166 1.6974L57.3728 6.42043C57.4319 6.74648 57.7442 6.96289 58.0702 6.90378C58.3963 6.84468 58.6127 6.53244 58.5536 6.20638L57.5904 0.892979ZM1 153L1.57581 153.169C1.65015 152.915 1.80775 152.073 2.04422 150.796C2.28577 149.492 2.61847 147.681 3.04772 145.429C3.90612 140.925 5.15035 134.661 6.8198 127.187C10.1591 112.238 15.1983 92.4548 22.2512 72.2459L21.6847 72.0482L21.1182 71.8505C14.045 92.1175 8.99409 111.949 5.64866 126.926C3.97578 134.415 2.72901 140.692 1.86894 145.204C1.43896 147.46 1.10556 149.275 0.864283 150.578C0.61793 151.908 0.475973 152.655 0.424193 152.831L1 153ZM21.6847 72.0482L22.2512 72.2459C33.531 39.9254 50.4548 11.4968 57.4931 1.34179L57 1L56.5069 0.658215C49.419 10.8847 32.4401 39.4094 21.1182 71.8505L21.6847 72.0482Z" fill="#F9F9F9"/>
</svg>
