<svg width="86" height="88" viewBox="0 0 86 88" fill="none" xmlns="http://www.w3.org/2000/svg">
<path d="M85.4243 4.57574C85.6586 4.81005 85.6586 5.18995 85.4243 5.42426L81.6059 9.24264C81.3716 9.47696 80.9917 9.47696 80.7574 9.24264C80.523 9.00833 80.523 8.62843 80.7574 8.39411L84.1515 5L80.7574 1.60589C80.523 1.37157 80.523 0.991674 80.7574 0.757359C80.9917 0.523045 81.3716 0.523045 81.6059 0.757359L85.4243 4.57574ZM84 5V4.4H85V5V5.6H84V5ZM1 88H0.400002C0.400002 41.829 37.829 4.4 84 4.4V5V5.6C38.4917 5.6 1.6 42.4917 1.6 88H1Z" fill="#F9F9F9"/>
</svg>
